<svg xmlns="http://www.w3.org/2000/svg" xmlns:xlink="http://www.w3.org/1999/xlink" width="500" zoomAndPan="magnify" viewBox="0 0 375 374.999991" height="500" preserveAspectRatio="xMidYMid meet" version="1.0"><defs><clipPath id="10a5a32cea"><path d="M 40 72 L 354.097656 72 L 354.097656 321 L 40 321 Z M 40 72 " clip-rule="nonzero"/></clipPath></defs><g clip-path="url(#10a5a32cea)"><path fill="#a6d388" d="M 81.234375 259.125 C 127.539062 305.398438 233.875 369.765625 354.414062 258.476562 C 286.277344 245.378906 274.289062 158.746094 227.972656 112.480469 C 181.667969 66.195312 117.058594 55.730469 70.742188 102.007812 C 24.4375 148.28125 34.917969 212.839844 81.234375 259.125 Z M 81.234375 259.125 " fill-opacity="1" fill-rule="nonzero"/></g><path fill="#77b255" d="M 250.351562 270.773438 C 307.035156 285.875 348.9375 263.949219 352.804688 260.085938 C 352.804688 260.085938 317.78125 276.273438 256.984375 246.441406 C 265.789062 235.238281 292.632812 219.550781 292.632812 219.550781 C 287.515625 216.351562 254.910156 217.472656 232.644531 232.761719 C 221.933594 225.984375 210.59375 217.8125 198.671875 208.035156 L 206.441406 199.980469 C 236.503906 168.699219 270.671875 176.097656 270.671875 176.097656 C 264.769531 170.429688 218.882812 144.289062 182.03125 182.566406 L 176.359375 188.464844 C 172.417969 184.777344 168.441406 180.957031 164.390625 176.910156 L 147.277344 159.808594 L 157.121094 149.964844 C 187.839844 119.273438 233.210938 118.0625 233.210938 118.0625 C 227.417969 112.265625 169.726562 93.574219 132.164062 131.113281 L 125.355469 137.910156 L 48.652344 61.242188 C 42.863281 55.445312 33.003906 55.925781 27.222656 61.703125 C 21.429688 67.488281 20.960938 77.335938 26.75 83.121094 L 103.460938 159.78125 L 102.914062 160.324219 C 65.351562 197.875 80.945312 258.625 86.746094 264.421875 C 86.746094 264.421875 91.074219 215.964844 121.792969 185.273438 L 125.375 181.6875 L 157.757812 214.058594 C 158.285156 214.585938 158.804688 215.039062 159.332031 215.566406 C 136.898438 259.910156 170.699219 311.148438 177.441406 315.253906 C 177.441406 315.253906 163.890625 271.59375 181.882812 235.433594 C 195.996094 246.480469 209.816406 254.796875 223.109375 260.898438 C 223.875 288.566406 248.148438 313.589844 254.039062 315.722656 C 254.039062 315.722656 245.613281 287.964844 249.101562 274.246094 Z M 250.351562 270.773438 " fill-opacity="1" fill-rule="nonzero"/><path fill="#5dadec" d="M 226.292969 87.648438 C 222.628906 87.648438 219.160156 85.449219 217.707031 81.84375 C 215.8125 77.113281 218.09375 71.75 222.824219 69.835938 C 224.359375 69.207031 259.96875 54.140625 263.671875 12.867188 C 264.132812 7.792969 268.515625 4.078125 273.707031 4.484375 C 278.804688 4.9375 282.550781 9.429688 282.097656 14.511719 C 277.359375 67.304688 231.675781 86.199219 229.730469 86.976562 C 228.605469 87.4375 227.4375 87.648438 226.292969 87.648438 Z M 272.542969 124.625 C 268.710938 124.625 265.132812 122.230469 263.808594 118.421875 C 262.136719 113.617188 264.660156 108.367188 269.453125 106.675781 C 271.191406 106.046875 311.308594 90.859375 319.214844 30.984375 C 319.882812 25.929688 324.40625 22.34375 329.59375 23.035156 C 334.664062 23.703125 338.226562 28.339844 337.550781 33.40625 C 328.105469 105.046875 277.722656 123.378906 275.585938 124.117188 C 274.574219 124.460938 273.550781 124.625 272.542969 124.625 Z M 300.300781 180.089844 C 297.035156 180.089844 293.878906 178.351562 292.1875 175.292969 C 289.726562 170.828125 291.363281 165.207031 295.832031 162.746094 C 296.082031 162.609375 321.277344 148.550781 329.140625 130.226562 C 331.160156 125.53125 336.617188 123.367188 341.277344 125.375 C 345.976562 127.378906 348.152344 132.816406 346.132812 137.511719 C 335.746094 161.730469 306 178.257812 304.742188 178.953125 C 303.324219 179.71875 301.808594 180.089844 300.300781 180.089844 Z M 300.300781 180.089844 " fill-opacity="1" fill-rule="nonzero"/></svg>