<svg xmlns="http://www.w3.org/2000/svg" xmlns:xlink="http://www.w3.org/1999/xlink" width="500" zoomAndPan="magnify" viewBox="0 0 375 374.999991" height="500" preserveAspectRatio="xMidYMid meet" version="1.0"><defs><clipPath id="e231d92550"><path d="M 20.039062 25.3125 L 362 25.3125 L 362 337.3125 L 20.039062 337.3125 Z M 20.039062 25.3125 " clip-rule="nonzero"/></clipPath></defs><g clip-path="url(#e231d92550)"><path fill="#49cf7b" d="M 328.1875 61.636719 C 319.375 61.636719 311.078125 65.046875 304.882812 71.242188 L 295.273438 80.847656 C 265.488281 45.4375 222.34375 25.199219 175.902344 25.199219 C 89.957031 25.199219 20.039062 95.117188 20.039062 181.121094 C 20.039062 267.125 89.957031 337.042969 175.902344 337.042969 C 261.851562 337.042969 331.824219 267.125 331.824219 181.121094 C 331.824219 168.046875 330.121094 155.03125 326.878906 142.46875 L 351.492188 117.855469 C 364.28125 105.007812 364.28125 84.089844 351.492188 71.242188 C 345.242188 65.046875 336.996094 61.636719 328.1875 61.636719 Z M 175.902344 325.675781 C 96.207031 325.675781 31.40625 260.816406 31.40625 181.121094 C 31.40625 101.425781 96.207031 36.566406 175.902344 36.566406 C 219.273438 36.566406 259.578125 55.554688 287.261719 88.863281 L 199.152344 176.914062 L 165.671875 143.492188 C 152.882812 130.644531 132.019531 130.703125 119.171875 143.492188 C 112.863281 149.800781 109.394531 158.15625 109.453125 166.96875 C 109.453125 175.722656 112.921875 183.90625 119.171875 190.046875 L 175.902344 246.890625 C 182.210938 253.085938 190.453125 256.554688 199.152344 256.554688 C 207.792969 256.554688 216.089844 253.140625 222.570312 246.832031 L 317.5 151.902344 C 319.433594 161.511719 320.457031 171.289062 320.457031 181.121094 C 320.457031 260.816406 255.597656 325.675781 175.902344 325.675781 Z M 175.902344 325.675781 " fill-opacity="1" fill-rule="nonzero"/></g></svg>